<svg id="Layer_1" xmlns="http://www.w3.org/2000/svg" viewBox="0 0 864 365">
  <style>
    .st0{fill:#ffffff;} .st1{fill-rule:evenodd;clip-rule:evenodd;fill:#ffffff;}
  </style>
  <path class="st0" d="M252.3 87.1c24-8.3 51.5-9.6 78.9-9.6 55.4 0 96.7 12.8 113.7 19.2 14-22.2 30.2-43.6 48.3-63.9-115.9.7-194.2 21.8-240.9 54.3zM384.1 265.3c-67.7 9-132.7 26.3-185.6 49.8 52.5 9.8 115.2 16.9 183.9 20.1-.6-8.6-.9-17.3-.9-26 0-14.8.9-29.5 2.6-43.9z"/>
  <path class="st1" d="M823 76.2c-49.3 0-101.2 85-205.9 85-133.2 0-141.5-68.2-312.4-68.2C155.7 92.9 41 213.8 41 248.6c0 8.8 51.5 40.2 130.4 59.9 71.8-41.3 251.4-75.9 335-75.9 137.9 0 229.6 55.6 261.8 83.5-8.3-22.8-14.5-55.5-14.5-81.5 0-61.9 28.7-121.8 69.3-158.4zM129.2 222.1c-8.8 0-16-7.2-16-16s7.2-16 16-16 16 7.2 16 16-7.2 16-16 16zm104.4 44.1c-4-2.5-8-5-12.1-7.5 3.9-8 7.4-16.1 10.4-24.4 6.7 3.9 13.3 8 19.7 12.1-5.5 6.7-11.5 13.3-18 19.8zm26-30.8c-7.7-4.9-15.6-9.6-23.6-14.2 2.1-7.2 3.9-14.5 5.2-21.9 10 5.6 19.8 11.4 29.4 17.3-3.1 6.4-6.8 12.6-11 18.8zm17-32.4c-10.7-6.6-21.7-12.9-33-19 .6-5.3 1-10.6 1.2-16 12.5 6.5 24.6 13.3 36.3 20.3-1.2 5-2.7 9.9-4.5 14.7z"/>
</svg>
